<svg viewBox="0 0 60 60" fill="none" xmlns="http://www.w3.org/2000/svg">
<rect width="60" height="60" rx="30" fill="url(#telegram-bot_paint0_linear)"/>
<path d="M30.0162 16.7988C22.7483 16.7988 16.8318 22.7103 16.8291 29.9782C16.8278 32.3014 17.4363 34.5694 18.59 36.5679L16.8008 43.1988L23.7076 41.5669C25.6335 42.6176 27.8015 43.1692 30.0085 43.1705H30.0137C37.2803 43.1705 43.1942 37.2577 43.1982 29.9911C43.2008 26.468 41.8308 23.1556 39.3413 20.6634C36.8518 18.1726 33.5433 16.8001 30.0162 16.7988ZM30.0137 19.4388C32.8332 19.4401 35.4829 20.5394 37.4748 22.53C39.4666 24.5232 40.5608 27.1716 40.5582 29.9885C40.5556 35.8018 35.827 40.5305 30.0111 40.5305C28.2515 40.5292 26.5086 40.0873 24.9734 39.2491L24.084 38.7645L23.1017 38.9965L20.503 39.6101L21.1372 37.2537L21.4234 36.1966L20.8768 35.2479C19.9554 33.6533 19.4678 31.8302 19.4691 29.9782C19.4718 24.1676 24.2017 19.4388 30.0137 19.4388ZM25.3498 23.8938C25.1294 23.8938 24.773 23.9763 24.4707 24.3063C24.1684 24.635 23.3157 25.4311 23.3157 27.052C23.3157 28.673 24.4965 30.2399 24.6615 30.4603C24.8252 30.6794 26.9407 34.1109 30.2895 35.4309C33.0721 36.5279 33.6372 36.3114 34.2418 36.2559C34.8464 36.2018 36.1922 35.4606 36.4667 34.691C36.7413 33.9215 36.7419 33.2595 36.6601 33.1235C36.5782 32.9862 36.3584 32.9044 36.0284 32.7394C35.6998 32.5744 34.08 31.779 33.7777 31.6695C33.4755 31.5599 33.2544 31.5045 33.0352 31.8345C32.8161 32.1645 32.1864 32.9044 31.9937 33.1235C31.801 33.344 31.6095 33.3736 31.2795 33.2086C30.9495 33.0423 29.8885 32.6935 28.6292 31.5715C27.6498 30.699 26.9889 29.6224 26.7962 29.2924C26.6048 28.9637 26.7781 28.7832 26.9431 28.6195C27.091 28.4717 27.2705 28.2348 27.4355 28.042C27.5992 27.8493 27.656 27.712 27.7655 27.4929C27.8751 27.2738 27.819 27.0804 27.7372 26.9154C27.6553 26.7504 27.0144 25.1234 26.7214 24.4713C26.4746 23.9235 26.2139 23.9108 25.9789 23.9016C25.7875 23.8936 25.569 23.8938 25.3498 23.8938Z" fill="white"/>
<rect width="60" height="60" rx="30" fill="url(#telegram-bot_paint1_linear)"/>
<g clip-path="url(#telegram-bot_clip0)">
<path d="M23.2904 32.8C22.7217 32.8 22.1659 32.6329 21.6931 32.3197C21.2203 32.0066 20.8518 31.5614 20.6342 31.0407C20.4166 30.5199 20.3597 29.9469 20.4706 29.394C20.5815 28.8412 20.8554 28.3333 21.2574 27.9348C21.6595 27.5362 22.1718 27.2648 22.7295 27.1548C23.2872 27.0448 23.8652 27.1013 24.3906 27.317C24.9159 27.5327 25.3649 27.898 25.6808 28.3666C25.9967 28.8353 26.1654 29.3863 26.1654 29.95C26.1654 30.7059 25.8625 31.4308 25.3233 31.9653C24.7841 32.4998 24.0529 32.8 23.2904 32.8ZM49.1654 31.85C49.1654 32.6059 48.8625 33.3308 48.3233 33.8653C47.7841 34.3998 47.0529 34.7 46.2904 34.7H45.332V40.4C45.3309 41.4075 44.9266 42.3734 44.208 43.0858C43.4894 43.7981 42.515 44.1989 41.4987 44.2H18.4987C17.4824 44.1989 16.508 43.7981 15.7894 43.0858C15.0708 42.3734 14.6665 41.4075 14.6654 40.4V34.7H13.707C12.9445 34.7 12.2133 34.3998 11.6741 33.8653C11.1349 33.3308 10.832 32.6059 10.832 31.85C10.832 31.0942 11.1349 30.3692 11.6741 29.8348C12.2133 29.3003 12.9445 29 13.707 29H14.6654V23.3C14.6665 22.2926 15.0708 21.3267 15.7894 20.6143C16.508 19.9019 17.4824 19.5012 18.4987 19.5H28.082V13.8C28.082 13.2961 28.284 12.8128 28.6434 12.4565C29.0029 12.1002 29.4904 11.9 29.9987 11.9C30.507 11.9 30.9945 12.1002 31.354 12.4565C31.7134 12.8128 31.9154 13.2961 31.9154 13.8V19.5H41.4987C42.515 19.5012 43.4894 19.9019 44.208 20.6143C44.9266 21.3267 45.3309 22.2926 45.332 23.3V29H46.2904C47.0529 29 47.7841 29.3003 48.3233 29.8348C48.8625 30.3692 49.1654 31.0942 49.1654 31.85ZM43.4154 23.3C43.4149 22.7963 43.2128 22.3133 42.8534 21.9571C42.4941 21.6009 42.0069 21.4005 41.4987 21.4H18.4987C17.9905 21.4005 17.5033 21.6009 17.144 21.9571C16.7846 22.3133 16.5825 22.7963 16.582 23.3V40.4C16.5825 40.9038 16.7846 41.3868 17.144 41.743C17.5033 42.0992 17.9905 42.2995 18.4987 42.3H41.4987C42.0069 42.2995 42.4941 42.0992 42.8534 41.743C43.2128 41.3868 43.4149 40.9038 43.4154 40.4V23.3ZM36.707 27.1C36.1384 27.1 35.5826 27.2672 35.1098 27.5803C34.637 27.8935 34.2685 28.3386 34.0509 28.8594C33.8333 29.3801 33.7763 29.9532 33.8873 30.506C33.9982 31.0589 34.272 31.5667 34.6741 31.9653C35.0762 32.3639 35.5885 32.6353 36.1461 32.7453C36.7038 32.8552 37.2819 32.7988 37.8072 32.5831C38.3326 32.3674 38.7816 32.0021 39.0975 31.5334C39.4134 31.0647 39.582 30.5137 39.582 29.95C39.582 29.1942 39.2791 28.4692 38.74 27.9348C38.2008 27.4003 37.4695 27.1 36.707 27.1ZM35.423 35.7066C31.9241 36.998 28.0733 36.998 24.5744 35.7066C24.3361 35.6242 24.0747 35.6382 23.8468 35.7457C23.6189 35.8532 23.443 36.0454 23.3572 36.2807C23.2715 36.5159 23.2828 36.7753 23.3887 37.0023C23.4946 37.2294 23.6866 37.4058 23.923 37.4934C27.8421 38.9395 32.1553 38.9395 36.0744 37.4934C36.3108 37.4058 36.5028 37.2294 36.6087 37.0023C36.7146 36.7753 36.7259 36.5159 36.6402 36.2807C36.5544 36.0454 36.3785 35.8532 36.1506 35.7457C35.9227 35.6382 35.6613 35.6242 35.423 35.7066Z" fill="white"/>
</g>
<defs>
<linearGradient id="telegram-bot_paint0_linear" x1="29.9999" y1="-0.0572938" x2="29.9999" y2="59.9987" gradientUnits="userSpaceOnUse">
<stop stop-color="#61FD7D"/>
<stop offset="1" stop-color="#2BB826"/>
</linearGradient>
<linearGradient id="telegram-bot_paint1_linear" x1="-29.2779" y1="0" x2="-29.2779" y2="59.2782" gradientUnits="userSpaceOnUse">
<stop stop-color="#67C0FF"/>
<stop offset="1" stop-color="#3E9BE1"/>
</linearGradient>
<clipPath id="telegram-bot_clip0">
<rect width="46" height="38" fill="white" transform="translate(7 10)"/>
</clipPath>
</defs>
</svg>
